<svg width="80" height="76" viewBox="0 0 80 76" fill="none" xmlns="http://www.w3.org/2000/svg">
<path fill-rule="evenodd" clip-rule="evenodd" d="M32.8734 4.5103C35.6784 -1.50343 44.3216 -1.50344 47.1266 4.5103L54.8218 21.0079L73.0663 23.147C79.7168 23.9267 82.3877 32.0555 77.4708 36.5519L63.9822 48.8871L67.5627 66.7067C68.8679 73.2023 61.8755 78.2262 56.0316 74.9914L40 66.1174L23.9684 74.9914C18.1245 78.2261 11.1321 73.2023 12.4373 66.7067L16.0178 48.8871L2.52921 36.5519C-2.3877 32.0555 0.283173 23.9267 6.93371 23.147L25.1782 21.0079L32.8734 4.5103ZM47.6952 24.2585L40 7.76094L32.3048 24.2585C31.1616 26.7095 28.8127 28.397 26.1023 28.7148L7.85777 30.8539L21.3464 43.1891C23.3503 45.0217 24.2475 47.7522 23.7156 50.3996L20.135 68.2192L36.1666 59.3452C38.5483 58.0268 41.4517 58.0268 43.8334 59.3452L59.865 68.2192L56.2844 50.3996C55.7525 47.7522 56.6497 45.0217 58.6536 43.1891L72.1422 30.8539L53.8977 28.7148C51.1873 28.397 48.8384 26.7095 47.6952 24.2585Z" fill="#EDC701"/>
</svg>
