<svg width="22" height="20" viewBox="0 0 22 20" fill="none" xmlns="http://www.w3.org/2000/svg">
<path fill-rule="evenodd" clip-rule="evenodd" d="M9.18392 1.54982C9.89875 7.84397e-05 12.1013 7.43866e-05 12.8162 1.54982L14.7771 5.80125L19.4265 6.35251C21.1213 6.55345 21.8019 8.64822 20.5489 9.80696L17.1115 12.9857L18.024 17.5779C18.3566 19.2518 16.5747 20.5464 15.0854 19.7128L11 17.426L6.91463 19.7128C5.42541 20.5464 3.64348 19.2518 3.97609 17.5779L4.88854 12.9857L1.45117 9.80696C0.198172 8.64822 0.878803 6.55345 2.57359 6.35251L7.22293 5.80125L9.18392 1.54982ZM12.961 6.63895L11 2.38751L9.03904 6.63895C8.74771 7.27056 8.14913 7.70545 7.45841 7.78734L2.80907 8.3386L6.24645 11.5174C6.75712 11.9896 6.98575 12.6933 6.85019 13.3755L5.93774 17.9676L10.0232 15.6808C10.6301 15.3411 11.37 15.3411 11.9769 15.6808L16.0623 17.9676L15.1499 13.3755C15.0143 12.6933 15.243 11.9896 15.7536 11.5174L19.191 8.3386L14.5417 7.78734C13.8509 7.70545 13.2524 7.27056 12.961 6.63895Z" fill="#D0D0D0"/>
</svg>
