<svg width="24" height="24" viewBox="0 0 24 24" fill="none" xmlns="http://www.w3.org/2000/svg">
<circle cx="12" cy="12" r="12" fill="#ECF6FD"/>
<path d="M14.5649 7.4178C14.6974 7.28534 14.8546 7.18027 15.0277 7.10858C15.2007 7.0369 15.3862 7 15.5735 7C15.7609 7 15.9464 7.0369 16.1194 7.10858C16.2925 7.18027 16.4497 7.28534 16.5822 7.4178C16.7147 7.55026 16.8197 7.70751 16.8914 7.88057C16.9631 8.05364 17 8.23913 17 8.42645C17 8.61377 16.9631 8.79926 16.8914 8.97233C16.8197 9.14539 16.7147 9.30265 16.5822 9.4351L9.7738 16.2435L7 17L7.75649 14.2262L14.5649 7.4178Z" stroke="#016EED" stroke-width="2" stroke-linecap="round" stroke-linejoin="round"/>
</svg>
