<svg width="22" height="20" viewBox="0 0 22 20" fill="none" xmlns="http://www.w3.org/2000/svg">
<path fill-rule="evenodd" clip-rule="evenodd" d="M9.18386 1.54982C9.89869 7.84397e-05 12.1013 7.43866e-05 12.8161 1.54982L14.7771 5.80125L19.4264 6.35251C21.1212 6.55345 21.8018 8.64822 20.5488 9.80696L17.1115 12.9857L18.0239 17.5779C18.3565 19.2518 16.5746 20.5464 15.0854 19.7128L11 17.426L6.91457 19.7128C5.42535 20.5464 3.64342 19.2518 3.97603 17.5779L4.88848 12.9857L1.45111 9.80696C0.198111 8.64822 0.878742 6.55345 2.57353 6.35251L7.22287 5.80125L9.18386 1.54982ZM12.961 6.63895L11 2.38751L9.03898 6.63895C8.74764 7.27056 8.14907 7.70545 7.45835 7.78734L2.80901 8.3386L6.24639 11.5174C6.75706 11.9896 6.98569 12.6933 6.85013 13.3755L5.93768 17.9676L10.0231 15.6808C10.63 15.3411 11.3699 15.3411 11.9769 15.6808L16.0623 17.9676L15.1498 13.3755C15.0143 12.6933 15.2429 11.9896 15.7536 11.5174L19.1909 8.3386L14.5416 7.78734C13.8509 7.70545 13.2523 7.27056 12.961 6.63895Z" fill="#016EED"/>
</svg>
