<svg width="40" height="40" viewBox="0 0 40 40" fill="none" xmlns="http://www.w3.org/2000/svg">
<path fill-rule="evenodd" clip-rule="evenodd" d="M10 5C7.23858 5 5 7.23857 5 10V13.3333C5 16.0948 7.23858 18.3333 10 18.3333H13.3333C16.0948 18.3333 18.3333 16.0948 18.3333 13.3333V10C18.3333 7.23858 16.0948 5 13.3333 5H10ZM8.33333 10C8.33333 9.07952 9.07952 8.33333 10 8.33333H13.3333C14.2538 8.33333 15 9.07953 15 10V13.3333C15 14.2538 14.2538 15 13.3333 15H10C9.07953 15 8.33333 14.2538 8.33333 13.3333V10Z" fill="white"/>
<path fill-rule="evenodd" clip-rule="evenodd" d="M10 21.6667C7.23858 21.6667 5 23.9052 5 26.6667V30C5 32.7614 7.23858 35 10 35H13.3333C16.0948 35 18.3333 32.7614 18.3333 30V26.6667C18.3333 23.9052 16.0948 21.6667 13.3333 21.6667H10ZM8.33333 26.6667C8.33333 25.7462 9.07952 25 10 25H13.3333C14.2538 25 15 25.7462 15 26.6667V30C15 30.9205 14.2538 31.6667 13.3333 31.6667H10C9.07953 31.6667 8.33333 30.9205 8.33333 30V26.6667Z" fill="white"/>
<path fill-rule="evenodd" clip-rule="evenodd" d="M21.6667 26.6667C21.6667 23.9052 23.9052 21.6667 26.6667 21.6667H30C32.7614 21.6667 35 23.9052 35 26.6667V30C35 32.7614 32.7614 35 30 35H26.6667C23.9052 35 21.6667 32.7614 21.6667 30V26.6667ZM26.6667 25C25.7462 25 25 25.7462 25 26.6667V30C25 30.9205 25.7462 31.6667 26.6667 31.6667H30C30.9205 31.6667 31.6667 30.9205 31.6667 30V26.6667C31.6667 25.7462 30.9205 25 30 25H26.6667Z" fill="white"/>
<path fill-rule="evenodd" clip-rule="evenodd" d="M26.6667 5C23.9052 5 21.6667 7.23857 21.6667 10V13.3333C21.6667 16.0948 23.9052 18.3333 26.6667 18.3333H30C32.7614 18.3333 35 16.0948 35 13.3333V10C35 7.23858 32.7614 5 30 5H26.6667ZM25 10C25 9.07952 25.7462 8.33333 26.6667 8.33333H30C30.9205 8.33333 31.6667 9.07953 31.6667 10V13.3333C31.6667 14.2538 30.9205 15 30 15H26.6667C25.7462 15 25 14.2538 25 13.3333V10Z" fill="white"/>
</svg>
